<?xml version="1.0" standalone="no"?>
<!DOCTYPE svg PUBLIC "-//W3C//DTD SVG 20010904//EN"
 "http://www.w3.org/TR/2001/REC-SVG-20010904/DTD/svg10.dtd">
<svg version="1.0" xmlns="http://www.w3.org/2000/svg"
 width="603.000000pt" height="323.000000pt" viewBox="0 0 603.000000 323.000000"
 preserveAspectRatio="xMidYMid meet">

<g transform="translate(0.000000,323.000000) scale(0.100000,-0.100000)"
fill="#000000" stroke="none">
<path d="M2945 2953 c-22 -2 -44 -9 -49 -14 -6 -5 -41 -9 -79 -9 -104 0 -227
-45 -374 -137 -73 -46 -221 -190 -268 -262 -34 -52 -46 -63 -83 -72 -56 -15
-92 -64 -86 -117 5 -40 25 -67 67 -89 36 -18 88 -3 117 34 23 29 27 92 8 122
-10 17 -6 28 26 76 53 80 192 213 273 261 132 79 295 134 397 134 52 0 57 -4
158 -123 48 -56 38 -67 -58 -67 -70 0 -72 1 -98 35 -34 44 -85 56 -131 30 -86
-46 -65 -183 29 -201 41 -7 92 17 108 51 6 14 16 25 22 26 41 3 198 -1 205 -6
28 -17 153 -287 194 -421 33 -104 56 -223 60 -299 l2 -60 -217 -3 -218 -2 0
-25 c0 -14 1 -26 3 -27 1 -1 99 -4 217 -7 l215 -6 3 -34 c4 -39 -23 -193 -43
-251 -8 -22 -50 -113 -94 -202 -43 -90 -88 -190 -99 -223 -58 -169 -130 -450
-120 -461 4 -3 26 8 51 24 45 32 136 76 242 119 37 15 89 26 135 29 66 5 86 2
164 -25 59 -20 109 -31 146 -31 50 0 60 4 85 30 26 27 30 41 36 111 8 94 19
110 97 146 l53 24 -6 43 c-7 41 -5 44 29 64 34 20 36 24 36 72 0 57 -6 52 117
89 50 15 74 28 78 41 4 13 -15 63 -54 142 -57 118 -111 248 -145 352 -16 49
-16 50 9 86 20 29 25 48 25 101 0 144 -56 361 -122 478 -109 189 -448 384
-761 436 -93 15 -243 24 -302 18z"/>
<path d="M2563 1873 c-32 -33 -35 -41 -30 -81 6 -51 39 -92 77 -94 52 -2 69 3
91 28 13 14 31 34 40 44 13 14 27 17 61 13 48 -6 73 11 62 41 -5 12 -20 16
-70 16 -49 0 -66 4 -76 18 -45 62 -106 68 -155 15z"/>
<path d="M2314 1521 c-39 -24 -56 -69 -44 -112 11 -39 26 -56 62 -75 40 -21
88 -4 124 43 l27 36 240 -5 239 -5 25 -32 c33 -43 66 -55 109 -41 75 25 101
124 47 175 -35 32 -56 39 -99 31 -22 -5 -42 -18 -58 -39 l-25 -33 -240 -3
c-188 -2 -241 0 -250 11 -6 7 -19 23 -29 36 -24 33 -87 39 -128 13z"/>
</g>
</svg>
