<?xml version="1.0" standalone="no"?>
<!DOCTYPE svg PUBLIC "-//W3C//DTD SVG 20010904//EN"
 "http://www.w3.org/TR/2001/REC-SVG-20010904/DTD/svg10.dtd">
<svg version="1.0" xmlns="http://www.w3.org/2000/svg"
 width="603.000000pt" height="323.000000pt" viewBox="0 0 603.000000 323.000000"
 preserveAspectRatio="xMidYMid meet">
<metadata>
Created by potrace 1.16, written by Peter Selinger 2001-2019
</metadata>
<g transform="translate(0.000000,323.000000) scale(0.100000,-0.100000)"
fill="#000000" stroke="none">
<path d="M2893 2956 c-23 -8 -62 -11 -87 -9 -75 9 -240 -53 -376 -142 -89 -58
-221 -187 -273 -267 -25 -39 -45 -58 -58 -58 -59 0 -112 -59 -113 -126 -1 -52
25 -91 78 -118 32 -16 44 -17 76 -7 56 16 90 62 90 117 0 25 -5 54 -10 65 -9
15 -5 28 19 63 134 194 348 333 591 382 94 19 116 12 167 -56 20 -27 41 -50
45 -50 4 0 12 -9 18 -20 10 -19 8 -20 -62 -20 -71 0 -74 1 -91 30 -21 34 -80
56 -123 46 -15 -4 -43 -23 -61 -42 -27 -30 -33 -43 -33 -81 0 -123 141 -174
217 -78 27 34 28 34 114 34 52 0 92 -5 102 -12 16 -13 74 -124 126 -244 56
-129 141 -468 125 -495 -3 -5 -99 -8 -215 -8 l-209 0 0 60 c0 46 4 61 18 69 9
6 12 11 6 11 -28 0 -36 -31 -33 -122 2 -51 2 -163 1 -248 l-2 -156 -227 4
-226 4 -37 39 c-41 44 -75 50 -136 24 -49 -20 -79 -88 -65 -143 12 -43 42 -75
86 -92 39 -15 107 10 136 51 l20 29 184 0 184 0 4 -92 3 -93 2 98 2 97 35 0
35 0 0 -120 0 -120 63 2 62 2 -57 3 -58 4 0 105 0 106 25 -31 c34 -40 84 -56
130 -41 86 28 115 135 55 204 -51 58 -125 60 -180 4 l-30 -30 0 136 c0 134 0
136 23 137 110 3 393 -4 398 -9 8 -8 -13 -158 -31 -222 -7 -25 -52 -128 -100
-230 -92 -196 -100 -215 -150 -379 -31 -100 -80 -302 -80 -328 0 -20 22 -15
64 13 95 65 294 149 376 159 47 5 70 1 162 -29 72 -25 125 -36 164 -36 53 0
60 3 94 39 35 36 38 45 44 119 8 89 18 104 93 136 48 21 56 35 47 81 -5 29 -2
34 30 53 31 18 35 26 38 68 3 53 3 53 108 86 111 34 111 40 22 225 -39 81 -90
199 -112 261 -41 117 -42 132 -6 162 35 28 6 295 -48 444 -90 249 -309 424
-666 532 -192 59 -428 81 -527 50z"/>
<path d="M2580 1917 c-36 -18 -70 -74 -70 -116 0 -65 60 -131 120 -131 37 0
84 28 109 65 22 33 27 35 77 35 l54 0 0 45 0 45 -63 0 c-52 0 -67 4 -83 21
-41 46 -97 60 -144 36z"/>
</g>
</svg>
